<svg width="69" height="15" viewBox="0 0 69 15" fill="none" xmlns="http://www.w3.org/2000/svg">
<path d="M9.10547 10.5107C9.10547 11.6533 8.69238 12.5498 7.86621 13.2002C7.04004 13.8506 5.90039 14.1758 4.44727 14.1758C2.99414 14.1758 1.80469 13.9502 0.878906 13.499V11.5127C1.46484 11.7881 2.08594 12.0049 2.74219 12.1631C3.4043 12.3213 4.01953 12.4004 4.58789 12.4004C5.41992 12.4004 6.03223 12.2422 6.4248 11.9258C6.82324 11.6094 7.02246 11.1846 7.02246 10.6514C7.02246 10.1709 6.84082 9.76367 6.47754 9.42969C6.11426 9.0957 5.36426 8.7002 4.22754 8.24316C3.05566 7.76855 2.22949 7.22656 1.74902 6.61719C1.26855 6.00781 1.02832 5.27539 1.02832 4.41992C1.02832 3.34766 1.40918 2.50391 2.1709 1.88867C2.93262 1.27344 3.95508 0.96582 5.23828 0.96582C6.46875 0.96582 7.69336 1.23535 8.91211 1.77441L8.24414 3.48828C7.10156 3.00781 6.08203 2.76758 5.18555 2.76758C4.50586 2.76758 3.99023 2.91699 3.63867 3.21582C3.28711 3.50879 3.11133 3.89844 3.11133 4.38477C3.11133 4.71875 3.18164 5.00586 3.32227 5.24609C3.46289 5.48047 3.69434 5.70312 4.0166 5.91406C4.33887 6.125 4.91895 6.40332 5.75684 6.74902C6.7002 7.1416 7.3916 7.50781 7.83105 7.84766C8.27051 8.1875 8.59277 8.57129 8.79785 8.99902C9.00293 9.42676 9.10547 9.93066 9.10547 10.5107ZM17.4551 14L17.042 12.6465H16.9717C16.5029 13.2383 16.0312 13.6426 15.5566 13.8594C15.082 14.0703 14.4727 14.1758 13.7285 14.1758C12.7734 14.1758 12.0264 13.918 11.4873 13.4023C10.9541 12.8867 10.6875 12.1572 10.6875 11.2139C10.6875 10.2119 11.0596 9.45605 11.8037 8.94629C12.5479 8.43652 13.6816 8.1582 15.2051 8.11133L16.8838 8.05859V7.54004C16.8838 6.91895 16.7373 6.45605 16.4443 6.15137C16.1572 5.84082 15.709 5.68555 15.0996 5.68555C14.6016 5.68555 14.124 5.75879 13.667 5.90527C13.21 6.05176 12.7705 6.22461 12.3486 6.42383L11.6807 4.94727C12.208 4.67188 12.7852 4.46387 13.4121 4.32324C14.0391 4.17676 14.6309 4.10352 15.1875 4.10352C16.4238 4.10352 17.3555 4.37305 17.9824 4.91211C18.6152 5.45117 18.9316 6.29785 18.9316 7.45215V14H17.4551ZM14.3789 12.5938C15.1289 12.5938 15.7295 12.3857 16.1807 11.9697C16.6377 11.5479 16.8662 10.959 16.8662 10.2031V9.35938L15.6182 9.41211C14.6455 9.44727 13.9365 9.61133 13.4912 9.9043C13.0518 10.1914 12.832 10.6338 12.832 11.2314C12.832 11.665 12.9609 12.002 13.2188 12.2422C13.4766 12.4766 13.8633 12.5938 14.3789 12.5938ZM27.8965 14L27.4834 12.6465H27.4131C26.9443 13.2383 26.4727 13.6426 25.998 13.8594C25.5234 14.0703 24.9141 14.1758 24.1699 14.1758C23.2148 14.1758 22.4678 13.918 21.9287 13.4023C21.3955 12.8867 21.1289 12.1572 21.1289 11.2139C21.1289 10.2119 21.501 9.45605 22.2451 8.94629C22.9893 8.43652 24.123 8.1582 25.6465 8.11133L27.3252 8.05859V7.54004C27.3252 6.91895 27.1787 6.45605 26.8857 6.15137C26.5986 5.84082 26.1504 5.68555 25.541 5.68555C25.043 5.68555 24.5654 5.75879 24.1084 5.90527C23.6514 6.05176 23.2119 6.22461 22.79 6.42383L22.1221 4.94727C22.6494 4.67188 23.2266 4.46387 23.8535 4.32324C24.4805 4.17676 25.0723 4.10352 25.6289 4.10352C26.8652 4.10352 27.7969 4.37305 28.4238 4.91211C29.0566 5.45117 29.373 6.29785 29.373 7.45215V14H27.8965ZM24.8203 12.5938C25.5703 12.5938 26.1709 12.3857 26.6221 11.9697C27.0791 11.5479 27.3076 10.959 27.3076 10.2031V9.35938L26.0596 9.41211C25.0869 9.44727 24.3779 9.61133 23.9326 9.9043C23.4932 10.1914 23.2734 10.6338 23.2734 11.2314C23.2734 11.665 23.4023 12.002 23.6602 12.2422C23.918 12.4766 24.3047 12.5938 24.8203 12.5938ZM39.8848 10.5107C39.8848 11.6533 39.4717 12.5498 38.6455 13.2002C37.8193 13.8506 36.6797 14.1758 35.2266 14.1758C33.7734 14.1758 32.584 13.9502 31.6582 13.499V11.5127C32.2441 11.7881 32.8652 12.0049 33.5215 12.1631C34.1836 12.3213 34.7988 12.4004 35.3672 12.4004C36.1992 12.4004 36.8115 12.2422 37.2041 11.9258C37.6025 11.6094 37.8018 11.1846 37.8018 10.6514C37.8018 10.1709 37.6201 9.76367 37.2568 9.42969C36.8936 9.0957 36.1436 8.7002 35.0068 8.24316C33.835 7.76855 33.0088 7.22656 32.5283 6.61719C32.0479 6.00781 31.8076 5.27539 31.8076 4.41992C31.8076 3.34766 32.1885 2.50391 32.9502 1.88867C33.7119 1.27344 34.7344 0.96582 36.0176 0.96582C37.248 0.96582 38.4727 1.23535 39.6914 1.77441L39.0234 3.48828C37.8809 3.00781 36.8613 2.76758 35.9648 2.76758C35.2852 2.76758 34.7695 2.91699 34.418 3.21582C34.0664 3.50879 33.8906 3.89844 33.8906 4.38477C33.8906 4.71875 33.9609 5.00586 34.1016 5.24609C34.2422 5.48047 34.4736 5.70312 34.7959 5.91406C35.1182 6.125 35.6982 6.40332 36.5361 6.74902C37.4795 7.1416 38.1709 7.50781 38.6104 7.84766C39.0498 8.1875 39.3721 8.57129 39.5771 8.99902C39.7822 9.42676 39.8848 9.93066 39.8848 10.5107ZM56.8564 14H54.4219L50.3877 8.18164L49.1484 9.19238V14H47.0479V1.15039H49.1484V7.28516C49.7227 6.58203 50.2939 5.90527 50.8623 5.25488L54.334 1.15039H56.7246C54.4805 3.78711 52.8721 5.66504 51.8994 6.78418L56.8564 14ZM60.4072 14H58.3418V4.2793H60.4072V14ZM58.2188 1.7041C58.2188 1.33496 58.3184 1.05078 58.5176 0.851562C58.7227 0.652344 59.0127 0.552734 59.3877 0.552734C59.751 0.552734 60.0322 0.652344 60.2314 0.851562C60.4365 1.05078 60.5391 1.33496 60.5391 1.7041C60.5391 2.05566 60.4365 2.33398 60.2314 2.53906C60.0322 2.73828 59.751 2.83789 59.3877 2.83789C59.0127 2.83789 58.7227 2.73828 58.5176 2.53906C58.3184 2.33398 58.2188 2.05566 58.2188 1.7041ZM66.9902 12.5059C67.4941 12.5059 67.998 12.4268 68.502 12.2686V13.8242C68.2734 13.9238 67.9775 14.0059 67.6143 14.0703C67.2568 14.1406 66.8848 14.1758 66.498 14.1758C64.541 14.1758 63.5625 13.1445 63.5625 11.082V5.84375H62.2354V4.92969L63.6592 4.17383L64.3623 2.11719H65.6367V4.2793H68.4053V5.84375H65.6367V11.0469C65.6367 11.5449 65.7598 11.9141 66.0059 12.1543C66.2578 12.3887 66.5859 12.5059 66.9902 12.5059Z" fill="#109CF1"/>
</svg>
