<svg width="39" height="15" viewBox="0 0 39 15" fill="none" xmlns="http://www.w3.org/2000/svg">
<path d="M8.33008 10.5107C8.33008 11.6533 7.91699 12.5498 7.09082 13.2002C6.26465 13.8506 5.125 14.1758 3.67188 14.1758C2.21875 14.1758 1.0293 13.9502 0.103516 13.499V11.5127C0.689453 11.7881 1.31055 12.0049 1.9668 12.1631C2.62891 12.3213 3.24414 12.4004 3.8125 12.4004C4.64453 12.4004 5.25684 12.2422 5.64941 11.9258C6.04785 11.6094 6.24707 11.1846 6.24707 10.6514C6.24707 10.1709 6.06543 9.76367 5.70215 9.42969C5.33887 9.0957 4.58887 8.7002 3.45215 8.24316C2.28027 7.76855 1.4541 7.22656 0.973633 6.61719C0.493164 6.00781 0.25293 5.27539 0.25293 4.41992C0.25293 3.34766 0.633789 2.50391 1.39551 1.88867C2.15723 1.27344 3.17969 0.96582 4.46289 0.96582C5.69336 0.96582 6.91797 1.23535 8.13672 1.77441L7.46875 3.48828C6.32617 3.00781 5.30664 2.76758 4.41016 2.76758C3.73047 2.76758 3.21484 2.91699 2.86328 3.21582C2.51172 3.50879 2.33594 3.89844 2.33594 4.38477C2.33594 4.71875 2.40625 5.00586 2.54688 5.24609C2.6875 5.48047 2.91895 5.70312 3.24121 5.91406C3.56348 6.125 4.14355 6.40332 4.98145 6.74902C5.9248 7.1416 6.61621 7.50781 7.05566 7.84766C7.49512 8.1875 7.81738 8.57129 8.02246 8.99902C8.22754 9.42676 8.33008 9.93066 8.33008 10.5107ZM16.6797 14L16.2666 12.6465H16.1963C15.7275 13.2383 15.2559 13.6426 14.7812 13.8594C14.3066 14.0703 13.6973 14.1758 12.9531 14.1758C11.998 14.1758 11.251 13.918 10.7119 13.4023C10.1787 12.8867 9.91211 12.1572 9.91211 11.2139C9.91211 10.2119 10.2842 9.45605 11.0283 8.94629C11.7725 8.43652 12.9062 8.1582 14.4297 8.11133L16.1084 8.05859V7.54004C16.1084 6.91895 15.9619 6.45605 15.6689 6.15137C15.3818 5.84082 14.9336 5.68555 14.3242 5.68555C13.8262 5.68555 13.3486 5.75879 12.8916 5.90527C12.4346 6.05176 11.9951 6.22461 11.5732 6.42383L10.9053 4.94727C11.4326 4.67188 12.0098 4.46387 12.6367 4.32324C13.2637 4.17676 13.8555 4.10352 14.4121 4.10352C15.6484 4.10352 16.5801 4.37305 17.207 4.91211C17.8398 5.45117 18.1562 6.29785 18.1562 7.45215V14H16.6797ZM13.6035 12.5938C14.3535 12.5938 14.9541 12.3857 15.4053 11.9697C15.8623 11.5479 16.0908 10.959 16.0908 10.2031V9.35938L14.8428 9.41211C13.8701 9.44727 13.1611 9.61133 12.7158 9.9043C12.2764 10.1914 12.0566 10.6338 12.0566 11.2314C12.0566 11.665 12.1855 12.002 12.4434 12.2422C12.7012 12.4766 13.0879 12.5938 13.6035 12.5938ZM27.1211 14L26.708 12.6465H26.6377C26.1689 13.2383 25.6973 13.6426 25.2227 13.8594C24.748 14.0703 24.1387 14.1758 23.3945 14.1758C22.4395 14.1758 21.6924 13.918 21.1533 13.4023C20.6201 12.8867 20.3535 12.1572 20.3535 11.2139C20.3535 10.2119 20.7256 9.45605 21.4697 8.94629C22.2139 8.43652 23.3477 8.1582 24.8711 8.11133L26.5498 8.05859V7.54004C26.5498 6.91895 26.4033 6.45605 26.1104 6.15137C25.8232 5.84082 25.375 5.68555 24.7656 5.68555C24.2676 5.68555 23.79 5.75879 23.333 5.90527C22.876 6.05176 22.4365 6.22461 22.0146 6.42383L21.3467 4.94727C21.874 4.67188 22.4512 4.46387 23.0781 4.32324C23.7051 4.17676 24.2969 4.10352 24.8535 4.10352C26.0898 4.10352 27.0215 4.37305 27.6484 4.91211C28.2812 5.45117 28.5977 6.29785 28.5977 7.45215V14H27.1211ZM24.0449 12.5938C24.7949 12.5938 25.3955 12.3857 25.8467 11.9697C26.3037 11.5479 26.5322 10.959 26.5322 10.2031V9.35938L25.2842 9.41211C24.3115 9.44727 23.6025 9.61133 23.1572 9.9043C22.7178 10.1914 22.498 10.6338 22.498 11.2314C22.498 11.665 22.627 12.002 22.8848 12.2422C23.1426 12.4766 23.5293 12.5938 24.0449 12.5938ZM38.0107 11.2314C38.0107 12.1807 37.665 12.9102 36.9736 13.4199C36.2822 13.9238 35.292 14.1758 34.0029 14.1758C32.708 14.1758 31.668 13.9795 30.8828 13.5869V11.8027C32.0254 12.3301 33.0889 12.5938 34.0732 12.5938C35.3447 12.5938 35.9805 12.21 35.9805 11.4424C35.9805 11.1963 35.9102 10.9912 35.7695 10.8271C35.6289 10.6631 35.3975 10.4932 35.0752 10.3174C34.7529 10.1416 34.3047 9.94238 33.7305 9.71973C32.6113 9.28613 31.8525 8.85254 31.4541 8.41895C31.0615 7.98535 30.8652 7.42285 30.8652 6.73145C30.8652 5.89941 31.1992 5.25488 31.8672 4.79785C32.541 4.33496 33.4551 4.10352 34.6094 4.10352C35.752 4.10352 36.833 4.33496 37.8525 4.79785L37.1846 6.35352C36.1357 5.91992 35.2539 5.70312 34.5391 5.70312C33.4492 5.70312 32.9043 6.01367 32.9043 6.63477C32.9043 6.93945 33.0449 7.19727 33.3262 7.4082C33.6133 7.61914 34.2344 7.90918 35.1895 8.27832C35.9922 8.58887 36.5752 8.87305 36.9385 9.13086C37.3018 9.38867 37.5713 9.6875 37.7471 10.0273C37.9229 10.3613 38.0107 10.7627 38.0107 11.2314Z" fill="#109CF1"/>
</svg>
